Coordinates
version=1
nRows=24
nColumns=34
inDegrees=yes

Units are S.I. units (second, meters, Newtons, ...)
If the header above contains a line with 'inDegrees', this indicates whether rotational values are in degrees (yes) or radians (no).

endheader
time	pelvis_tilt	pelvis_list	pelvis_rotation	pelvis_tx	pelvis_ty	pelvis_tz	hip_flexion_r	hip_adduction_r	hip_rotation_r	knee_angle_r	ankle_angle_r	subtalar_angle_r	mtp_angle_r	hip_flexion_l	hip_adduction_l	hip_rotation_l	knee_angle_l	ankle_angle_l	subtalar_angle_l	mtp_angle_l	lumbar_extension	lumbar_bending	lumbar_rotation	arm_flex_r	arm_add_r	arm_rot_r	elbow_flex_r	pro_sup_r	arm_flex_l	arm_add_l	arm_rot_l	elbow_flex_l	pro_sup_l
2.933333	3.673409	0.922570	2.248945	0.880186	0.933611	-0.070229	-3.096182	-3.547419	-18.188164	0.005610	6.779802	1.908056	0.000000	-2.230779	-3.020347	-16.867201	0.002621	4.277513	2.930228	0.000000	-8.105397	0.254067	-0.017323	9.265863	-7.331760	17.126027	26.322768	78.326055	10.375803	-6.453743	13.934999	23.810806	69.216750
2.950000	3.640397	0.923993	2.299971	0.879358	0.932743	-0.070527	-3.008262	-3.559008	-18.115193	0.007127	6.752936	1.848192	0.000000	-2.152439	-2.992564	-16.844825	0.004955	4.303936	3.014321	0.000000	-8.254609	0.259671	-0.060255	9.689626	-7.444389	17.097327	26.509332	78.265351	10.799071	-6.528685	13.928711	23.890904	69.199070
2.966667	3.630366	0.914711	2.360239	0.878441	0.931965	-0.070790	-2.936871	-3.551996	-17.978509	0.006143	6.675346	1.648937	0.000000	-2.087572	-2.977858	-16.787444	0.007369	4.362242	3.090526	0.000000	-8.469931	0.270765	-0.136290	10.212856	-7.581106	17.087479	26.807813	78.177062	11.353576	-6.633488	13.922013	24.000227	69.170229
2.983333	3.643850	0.895542	2.423547	0.877266	0.931503	-0.071048	-2.880493	-3.527079	-17.755844	-0.000257	6.525520	1.261699	0.000000	-2.032937	-2.974663	-16.694948	0.008401	4.447775	3.141314	0.000000	-8.755523	0.287530	-0.245102	10.853795	-7.745227	17.107969	27.244324	78.055796	12.058934	-6.767831	13.910275	24.147583	69.125775
3.000000	3.668928	0.870176	2.485743	0.875751	0.931570	-0.071369	-2.821871	-3.490678	-17.433181	-0.015592	6.287860	0.666239	0.000000	-1.970427	-2.976493	-16.576622	0.005411	4.536954	3.148272	0.000000	-9.103584	0.306422	-0.378513	11.630551	-7.936221	17.167882	27.823728	77.901206	12.932175	-6.928100	13.883217	24.341997	69.062039
3.016667	3.686770	0.843549	2.547836	0.873938	0.932328	-0.071832	-2.736913	-3.452702	-17.013585	-0.042550	5.949556	-0.121366	0.000000	-1.877073	-2.974153	-16.444852	-0.005371	4.590290	3.097519	0.000000	-9.496551	0.322485	-0.524896	12.557626	-8.148275	17.271103	28.524160	77.718908	13.983266	-7.106242	13.824654	24.588442	68.976920
3.033333	3.682990	0.819820	2.616290	0.871855	0.933798	-0.072503	-2.606659	-3.422944	-16.520643	-0.080041	5.493845	-1.060627	0.000000	-1.738423	-2.958665	-16.307374	-0.027978	4.562983	2.981705	0.000000	-9.920164	0.333271	-0.676366	13.649666	-8.372111	17.416009	29.305602	77.517653	15.217828	-7.290550	13.713820	24.884692	68.869563
3.050000	3.654011	0.801968	2.700268	0.869421	0.935757	-0.073405	-2.420771	-3.409546	-15.987095	-0.118546	4.899246	-2.118151	0.000000	-1.552383	-2.922599	-16.164870	-0.064456	4.415140	2.791558	0.000000	-10.374977	0.340175	-0.831669	14.926466	-8.600758	17.601196	30.129790	77.303734	16.643964	-7.469558	13.528116	25.223497	68.738787
3.066667	3.602362	0.792070	2.807560	0.866484	0.937752	-0.074514	-2.168365	-3.419724	-15.440653	-0.134337	4.156032	-3.281404	0.000000	-1.318993	-2.860964	-16.012411	-0.110693	4.123531	2.510099	0.000000	-10.872424	0.346622	-0.992517	16.412508	-8.834053	17.828730	30.974352	77.078550	18.274293	-7.635248	13.250499	25.598902	68.583756
3.083333	3.522045	0.790098	2.941492	0.862942	0.939302	-0.075755	-1.820051	-3.460260	-14.909044	-0.084783	3.300710	-4.518611	0.000000	-1.020006	-2.773955	-15.842119	-0.150347	3.698204	2.125591	0.000000	-11.412549	0.355182	-1.156893	18.130238	-9.075776	18.093616	31.821126	76.846614	20.120440	-7.782635	12.880537	26.011442	68.410208
3.100000	3.390677	0.792286	3.100949	0.858875	0.940107	-0.077024	-1.322418	-3.536341	-14.420766	0.090677	2.423772	-5.762197	0.000000	-0.608633	-2.670056	-15.641623	-0.148137	3.190198	1.642916	0.000000	-11.968523	0.366837	-1.316722	20.090820	-9.329852	18.379464	32.643722	76.623123	22.185558	-7.908517	12.436316	26.467550	68.233263
3.116667	3.179423	0.791460	3.283992	0.854611	0.940073	-0.078237	-0.619555	-3.649379	-13.983317	0.457410	1.624506	-6.971220	0.000000	-0.023645	-2.566132	-15.389947	-0.045956	2.676357	1.071434	0.000000	-12.495266	0.382970	-1.462600	22.286460	-9.601959	18.677398	33.419999	76.426533	24.457509	-8.011226	11.941371	26.973952	68.068816
3.133333	2.866395	0.779459	3.490533	0.850652	0.939212	-0.079348	0.317969	-3.795503	-13.574256	1.061844	0.967652	-8.172388	0.000000	0.787208	-2.483570	-15.064119	0.231613	2.233796	0.411778	0.000000	-12.942939	0.406187	-1.588532	24.686919	-9.899796	18.999674	34.143858	76.265600	26.901957	-8.090871	11.413420	27.534688	67.923582
3.150000	2.440368	0.749149	3.719430	0.847439	0.937585	-0.080328	1.484470	-3.965491	-13.157619	1.916222	0.482319	-9.424057	0.000000	1.852430	-2.442758	-14.650877	0.758023	1.925654	-0.339701	0.000000	-13.261954	0.439133	-1.691210	27.243551	-10.228496	19.368541	34.818646	76.135575	29.461522	-8.150218	10.867479	28.153293	67.793677
3.166667	1.897779	0.695062	3.963105	0.845123	0.935314	-0.081155	2.854500	-4.146396	-12.696546	3.005455	0.173298	-10.780597	0.000000	3.174726	-2.457579	-14.143432	1.580742	1.792684	-1.193749	0.000000	-13.408209	0.483533	-1.765889	29.903254	-10.587035	19.804420	35.445155	76.021206	32.068724	-8.194131	10.321100	28.831996	67.666637
3.183333	1.239184	0.614061	4.206107	0.843470	0.932530	-0.081804	4.405364	-4.324567	-12.153999	4.303983	0.020582	-12.294330	0.000000	4.741802	-2.531157	-13.528533	2.712363	1.841073	-2.183756	0.000000	-13.353876	0.539573	-1.803377	32.629281	-10.968800	20.326122	36.014408	75.899456	34.670009	-8.227069	9.793725	29.566472	67.521666
3.200000	0.465374	0.505189	4.429613	0.841910	0.929240	-0.082244	6.136366	-4.488386	-11.499297	5.792443	-0.017851	-14.020178	0.000000	6.548384	-2.656423	-12.785901	4.146164	2.046136	-3.362785	0.000000	-13.096124	0.606064	-1.791506	35.419018	-11.364172	20.949112	36.507063	75.742238	37.248033	-8.250875	9.309126	30.343682	67.331122
3.216667	-0.424714	0.368578	4.617665	0.839724	0.925299	-0.082448	8.079530	-4.630857	-10.724596	7.475580	0.010000	-16.007536	0.000000	8.613769	-2.821148	-11.903327	5.881162	2.377054	-4.777751	0.000000	-12.658977	0.681223	-1.718919	38.306751	-11.763541	21.676937	36.898186	75.521524	39.828809	-8.263187	8.902662	31.143558	67.065509
3.233333	-1.433346	0.205977	4.759455	0.836313	0.920574	-0.082427	10.296532	-4.752848	-9.852087	9.391923	0.063558	-18.286447	0.000000	10.981203	-3.011440	-10.889694	7.934274	2.811871	-6.447349	0.000000	-12.087659	0.762794	-1.576378	41.348390	-12.160951	22.498002	37.163165	75.214887	42.469129	-8.257619	8.623772	31.940343	66.698640
3.250000	-2.564768	0.022667	4.848340	0.831352	0.915114	-0.082226	12.864505	-4.864180	-8.920379	11.603125	0.109962	-20.853137	0.000000	13.704680	-3.211852	-9.772773	10.333258	3.329662	-8.359263	0.000000	-11.435987	0.847298	-1.358100	44.598131	-12.555656	23.398404	37.281510	74.806724	45.233434	-8.226567	8.527840	32.702424	66.209207
3.266667	-3.820298	-0.171102	4.881440	0.824837	0.909153	-0.081886	15.847815	-4.980807	-7.968684	14.166940	0.128753	-23.647018	0.000000	16.823818	-3.405913	-8.591558	13.098481	3.901890	-10.471568	0.000000	-10.760349	0.927845	-1.065005	48.087765	-12.948267	24.374318	37.239883	74.285474	48.173189	-8.163568	8.663592	33.393818	65.582426
3.283333	-5.185046	-0.360341	4.859002	0.817096	0.902936	-0.081438	19.260988	-5.120474	-7.036779	17.108722	0.131192	-26.521399	0.000000	20.331451	-3.579506	-7.395804	16.224661	4.500200	-12.704817	0.000000	-10.121916	0.991648	-0.703723	51.810479	-13.336351	25.421394	37.035302	73.644732	51.310861	-8.061992	9.063575	33.980390	64.818938
3.300000	-6.620209	-0.527712	4.782872	0.808735	0.896510	-0.080931	23.047398	-5.299232	-6.169530	20.405926	0.171176	-29.249021	0.000000	24.156994	-3.724931	-6.245658	19.672040	5.110958	-14.942904	0.000000	-9.582108	1.021177	-0.282948	55.714520	-13.714342	26.516628	36.675780	72.889331	54.630814	-7.914239	9.739698	34.435469	63.945832
3.316667	-8.067894	-0.657262	4.656215	0.800432	0.889664	-0.080432	27.089178	-5.528681	-5.410271	23.994139	0.328502	-31.587906	0.000000	28.178204	-3.842572	-5.201536	23.371482	5.743562	-17.054643	0.000000	-9.192193	1.000428	0.185625	59.716725	-14.074253	27.621510	36.177979	72.036912	58.085906	-7.717300	10.686609	34.741557	63.015723
